#tb 0: 1/25
#media_type 0: video
#codec_id 0: rawvideo
#dimensions 0: 64x240
#sar 0: 0/1
0,          0,          0,        1,    46080, 0xc50ed6b4
0,          1,          1,        1,    46080, 0x2aeac52d
0,          2,          2,        1,    46080, 0xe3e36cd3
0,          3,          3,        1,    46080, 0x81c6b317
0,          4,          4,        1,    46080, 0x20e24e33
0,          5,          5,        1,    46080, 0xc4a64f17
0,          6,          6,        1,    46080, 0xf95a5014
0,          7,          7,        1,    46080, 0x8d9e9a26
0,          8,          8,        1,    46080, 0x5f0f4592
0,          9,          9,        1,    46080, 0xa1b54f9f
0,         10,         10,        1,    46080, 0x3d5c3673
0,         11,         11,        1,    46080, 0xca6e5e83
0,         12,         12,        1,    46080, 0x93eca575
0,         13,         13,        1,    46080, 0xf84bab2b
0,         14,         14,        1,    46080, 0xf22599d1
0,         15,         15,        1,    46080, 0xf916673f
0,         16,         16,        1,    46080, 0xbb11a29b
0,         17,         17,        1,    46080, 0x047e1dd7
0,         18,         18,        1,    46080, 0x9a975834
0,         19,         19,        1,    46080, 0xa3fe84d4
0,         20,         20,        1,    46080, 0x08e1c2f4
0,         21,         21,        1,    46080, 0xbbbcf81b
0,         22,         22,        1,    46080, 0x4abb0255
0,         23,         23,        1,    46080, 0x20052dda
0,         24,         24,        1,    46080, 0x10290ef3
0,         25,         25,        1,    46080, 0x9e7633d0
0,         26,         26,        1,    46080, 0x60d0fb3a
0,         27,         27,        1,    46080, 0xe0209fb3
0,         28,         28,        1,    46080, 0xea006c44
0,         29,         29,        1,    46080, 0xe0b84e96
0,         30,         30,        1,    46080, 0x35e507d7
0,         31,         31,        1,    46080, 0x4107fcd6
0,         32,         32,        1,    46080, 0x1b34af49
0,         33,         33,        1,    46080, 0x4ab91078
0,         34,         34,        1,    46080, 0x130750dd
0,         35,         35,        1,    46080, 0x592dbe41
0,         36,         36,        1,    46080, 0xfd39cf6b
0,         37,         37,        1,    46080, 0xbe9ee5b7
0,         38,         38,        1,    46080, 0x25ebde48
0,         39,         39,        1,    46080, 0x2becd45c
0,         40,         40,        1,    46080, 0x9b5fdfdb
0,         41,         41,        1,    46080, 0xededa5f5
0,         42,         42,        1,    46080, 0x476bc4e5
0,         43,         43,        1,    46080, 0x4a4a0a4e
0,         44,         44,        1,    46080, 0x1324f41b
0,         45,         45,        1,    46080, 0xc503cfc8
0,         46,         46,        1,    46080, 0x53f7c74c
0,         47,         47,        1,    46080, 0xc861b5a3
